# xmcd
#
# Track frame offsets: 
#        150
#        15605
#        31786
#        52016
#        64434
#        80999
#        94665
#        109607
#        127554
#        149637
#        160232
#        179294
#        198952
#        219693
#
# Disc length: 3251 seconds
#
# Revision: 0
# Processed by: cddbd v1.5.2PL0 Copyright (c) Steve Scherf et al.
# Submitted via: ExactAudioCopyFreeDBPlugin 1.0
#
DISCID=c40cb10e
DTITLE=Tóth János Rudolf - Boldog-Szomorú Blues Trendetlen
DYEAR=2009
DGENRE=Blues
TTITLE0=Mantra I. (Végtelen utakon védtelen nyugalom)
TTITLE1=Egyszemélyes menedék
TTITLE2=Álomkörhinta
TTITLE3=Fekete szivárvány
TTITLE4=Boldog-Szomorú Blues
TTITLE5=Kétszemélyes magány
TTITLE6=Égesd el zene
TTITLE7=Vándorévek
TTITLE8=Haláltánc-tanár
TTITLE9=Három soros blues
TTITLE10=Ütött-kopott angyal
TTITLE11=Mono game over
TTITLE12=Szabad vagyok
TTITLE13=Mantra II.
EXTD=
EXTT0=
EXTT1=
EXTT2=
EXTT3=
EXTT4=
EXTT5=
EXTT6=
EXTT7=
EXTT8=
EXTT9=
EXTT10=
EXTT11=
EXTT12=
EXTT13=
PLAYORDER=
